<svg width="98" height="32" viewBox="0 0 98 32" fill="none" xmlns="http://www.w3.org/2000/svg">
<path d="M37.2578 14.9867V14.9999H32.9077L32.2617 7.4916C32.1168 5.85544 33.3297 4.41702 34.9643 4.27187L38.207 3.98183L37.2578 14.9867Z" fill="#5BD3F5"/>
<path fill-rule="evenodd" clip-rule="evenodd" d="M39.5122 2.71523C39.6572 1.07899 41.0943 -0.121801 42.7158 0.0101545L67.0376 2.13467C68.6721 2.27981 69.8719 3.71776 69.7402 5.3539L68.9096 14.9867H38.4443L39.499 2.70205L39.5122 2.71523ZM46.0429 4.65713C45.5836 4.43902 45.0981 4.45269 44.665 4.6708C44.2187 4.90261 43.8902 5.36603 43.7851 5.88418C43.5488 7.17973 44.5467 8.09373 45.4262 8.89834C45.5968 9.04832 45.7546 9.19806 45.9121 9.34805C46.004 9.42987 46.122 9.49844 46.2402 9.49844C46.3845 9.51201 46.5157 9.44351 46.6469 9.36172C46.8044 9.25263 46.9753 9.14365 47.146 9.03457L47.1601 9.02529C48.1676 8.37288 49.3244 7.62341 49.2461 6.27969C49.2066 5.73428 48.9311 5.25695 48.4848 4.9706C48.0385 4.6979 47.5266 4.64351 47.041 4.83437C46.8834 4.88892 46.7387 4.97088 46.6074 5.07998C46.4499 4.9027 46.253 4.75259 46.0429 4.65713Z" fill="#5BD3F5"/>
<path d="M97.25 12.5V28.1406H93.6574V12.5H97.25ZM92.3268 12.5V28.1406H88.7342V12.5H92.3268ZM87.4036 15.1406H83.8111V12.5H87.4036V15.1406ZM87.4036 28.1406H83.8111V16.3594H87.4036V28.1406ZM74.63 23.6719V28.1406H71.0374V12.5H74.63V20.8281H75.0292L77.6238 16.3594H82.0148L78.2226 22.0469L82.2143 28.1406H77.8234L75.0292 23.6719H74.63ZM67.0855 16.1969C67.6045 16.224 68.2964 16.3323 68.9484 16.5083L68.7089 19.3656C68.3363 19.2844 67.9238 19.2302 67.3783 19.2031C66.7795 19.176 66.1408 19.149 65.4755 19.149C64.8102 19.149 64.3312 19.2031 64.0917 19.3115C63.8655 19.4062 63.7458 19.6365 63.7458 20.0021C63.7458 20.1375 63.7857 20.2594 63.8655 20.3542C63.9587 20.4354 64.0917 20.476 64.2514 20.5031L67.1388 20.8823C68.0835 21.0042 68.7355 21.3156 69.108 21.7896C69.4939 22.25 69.6935 22.9813 69.6935 23.9969C69.6935 25.5135 69.3475 26.624 68.6423 27.3146C67.9504 27.9917 66.7263 28.3302 64.9965 28.3302C64.0385 28.3302 63.1736 28.2896 62.3886 28.2083C61.6434 28.1406 61.0047 28.0594 60.4858 27.9375L60.7519 24.9042C61.1245 24.9719 61.5769 25.0396 62.1357 25.1073C62.8676 25.175 63.5994 25.2021 64.3445 25.2021C65.0098 25.2021 65.4489 25.1344 65.6884 25.0125C65.9279 24.8771 66.0477 24.6063 66.0477 24.2271C66.0477 24.1052 66.0078 23.9969 65.9279 23.9156C65.8481 23.8208 65.7416 23.7667 65.6086 23.7531L62.6148 23.374C61.7366 23.2656 61.0979 22.9542 60.6987 22.4531C60.3128 21.925 60.1132 21.1667 60.1132 20.151C60.1132 18.824 60.539 17.8219 61.4039 17.1583C62.2688 16.4812 63.5329 16.1427 65.2227 16.1427C65.888 16.1427 66.5001 16.1563 67.0722 16.1833L67.0855 16.1969ZM57.5452 16.1562H57.7315L57.4521 19.3792C57.2924 19.3656 56.8799 19.3521 56.6271 19.3521C56.1614 19.3521 55.7223 19.3792 55.3098 19.4469C54.8973 19.501 54.099 19.7042 53.7397 19.8125V28.1406H50.1471V16.3594H53.7397V17.375C54.3119 17.0229 55.2433 16.6167 55.8287 16.4406C56.4408 16.251 56.9997 16.1562 57.5319 16.1562H57.5452ZM48.0448 24.6604V24.6333C47.5791 24.7552 46.9404 24.8771 46.1421 24.9854C45.3437 25.0802 44.5586 25.1208 43.7869 25.1208C42.8954 25.1208 42.27 24.999 41.9374 24.7417C41.6047 24.4844 41.4185 24.0375 41.4051 23.3875H48.3508C48.444 22.9406 48.5504 21.7219 48.5504 21.1125C48.5504 19.2437 48.1512 17.9844 47.3662 17.2531C46.5944 16.5083 45.2639 16.1427 43.3744 16.1427C41.485 16.1427 40.008 16.6302 39.1165 17.6187C38.225 18.5937 37.7726 20.1375 37.7726 22.2365C37.7726 24.3354 38.1984 25.9469 39.05 26.9083C39.9016 27.8562 41.2854 28.3302 43.2148 28.3302C44.226 28.3302 45.184 28.249 46.1021 28.0729C46.834 27.9375 47.4061 27.775 47.8053 27.5854L48.0581 24.6604H48.0448ZM41.8176 19.5958C42.0838 19.325 42.616 19.1896 43.3877 19.1896C44.1595 19.1896 44.6385 19.2844 44.878 19.474C45.1308 19.6635 45.2772 20.0292 45.2905 20.5844V21.1125H41.4185C41.4185 20.3542 41.5515 19.8531 41.8309 19.5958H41.8176ZM30.0552 23.2656V28.1406H26.4626V12.5H30.0552V20.8281H30.4544L33.049 16.3594H37.44L33.6478 22.0469L37.6396 28.1406H33.2486L30.4544 23.2656H30.0552ZM25.132 22.25C25.132 24.4437 24.8526 25.7844 23.9345 26.7187C23.0164 27.6531 21.2999 28.3437 19.1444 28.3437C16.9888 28.3437 15.2724 27.6531 14.3543 26.7187C13.4361 25.7844 13.1567 24.4437 13.1567 22.25C13.1567 20.0562 13.4361 18.7156 14.3543 17.7812C15.2724 16.8469 16.9888 16.1562 19.1444 16.1562C21.2999 16.1562 23.0164 16.8469 23.9345 17.7812C24.8526 18.7156 25.132 20.0562 25.132 22.25ZM16.7493 22.25C16.7493 23.4552 16.8824 24.1323 17.1485 24.4844C17.4279 24.8365 18.1464 25.0938 19.1444 25.0938C20.1423 25.0938 20.8741 24.8365 21.1403 24.4844C21.4197 24.1323 21.5394 23.4552 21.5394 22.25C21.5394 21.0448 21.4197 20.3677 21.1403 20.0156C20.8741 19.6635 20.1423 19.4062 19.1444 19.4062C18.1464 19.4062 17.4279 19.6635 17.1485 20.0156C16.8824 20.3677 16.7493 21.0448 16.7493 22.25ZM3.84259 32H0.25V16.3594H3.84259V17.375C4.28169 16.9281 4.64095 16.6844 5.23971 16.4677C5.85178 16.251 6.66344 16.1562 7.43519 16.1562C9.00528 16.1562 9.97661 16.6437 10.6286 17.5781C11.3072 18.5125 11.8261 20.0427 11.8261 22.25C11.8261 24.4573 11.4802 25.9469 10.6286 26.9219C9.79033 27.8969 8.23354 28.3437 6.43724 28.3437C5.4393 28.3437 4.44136 28.1406 3.84259 27.9375V32ZM8.23354 22.25C8.23354 21.0583 8.08717 20.3812 7.83436 20.0156C7.58155 19.6365 6.69006 19.4062 5.83848 19.4062C5.42599 19.4062 5.10665 19.4469 4.74739 19.501C4.38813 19.5687 4.12202 19.6771 3.8559 19.8125V24.6875C4.09541 24.7958 4.45466 24.9448 4.74739 24.999C5.06674 25.0531 5.4393 25.0938 5.83848 25.0938C6.82311 25.0938 7.58155 24.8229 7.83436 24.4844C8.10048 24.1323 8.23354 23.4417 8.23354 22.25Z" fill="#FCFBF8"/>
</svg>
